<svg xmlns="http://www.w3.org/2000/svg" xmlns:xlink="http://www.w3.org/1999/xlink" width="500" zoomAndPan="magnify" viewBox="0 0 375 374.999991" height="500" preserveAspectRatio="xMidYMid meet" version="1.0"><defs><clipPath id="id1"><path d="M 120.15625 95.464844 L 255.15625 95.464844 L 255.15625 230.464844 L 120.15625 230.464844 Z M 120.15625 95.464844 " clip-rule="nonzero"/></clipPath><clipPath id="id2"><path d="M 137.085938 138.300781 L 254.835938 138.300781 L 254.835938 229.800781 L 137.085938 229.800781 Z M 137.085938 138.300781 " clip-rule="nonzero"/></clipPath><clipPath id="id3"><path d="M 182.679688 168.078125 L 214.929688 168.078125 L 214.929688 193.578125 L 182.679688 193.578125 Z M 182.679688 168.078125 " clip-rule="nonzero"/></clipPath><clipPath id="id4"><path d="M 182.679688 152.835938 L 226.179688 152.835938 L 226.179688 178.335938 L 182.679688 178.335938 Z M 182.679688 152.835938 " clip-rule="nonzero"/></clipPath><clipPath id="id5"><path d="M 182.679688 137.59375 L 238 137.59375 L 238 163.09375 L 182.679688 163.09375 Z M 182.679688 137.59375 " clip-rule="nonzero"/></clipPath><clipPath id="id6"><path d="M 137.085938 137.59375 L 183.585938 137.59375 L 183.585938 194.59375 L 137.085938 194.59375 Z M 137.085938 137.59375 " clip-rule="nonzero"/></clipPath></defs><g clip-path="url(#id1)"><path fill="#3e1bed" d="M 147.015625 95.464844 L 228.300781 95.464844 C 229.179688 95.464844 230.058594 95.507812 230.933594 95.59375 C 231.808594 95.679688 232.675781 95.808594 233.539062 95.980469 C 234.402344 96.152344 235.253906 96.367188 236.097656 96.621094 C 236.9375 96.878906 237.765625 97.171875 238.578125 97.511719 C 239.390625 97.847656 240.183594 98.222656 240.960938 98.636719 C 241.734375 99.050781 242.488281 99.503906 243.222656 99.992188 C 243.953125 100.480469 244.65625 101.003906 245.339844 101.5625 C 246.019531 102.121094 246.667969 102.710938 247.289062 103.332031 C 247.914062 103.953125 248.503906 104.605469 249.0625 105.285156 C 249.617188 105.964844 250.140625 106.671875 250.632812 107.402344 C 251.121094 108.132812 251.570312 108.886719 251.984375 109.664062 C 252.402344 110.4375 252.777344 111.234375 253.113281 112.046875 C 253.449219 112.859375 253.746094 113.6875 254 114.527344 C 254.257812 115.367188 254.46875 116.222656 254.640625 117.085938 C 254.8125 117.945312 254.941406 118.816406 255.027344 119.691406 C 255.113281 120.566406 255.15625 121.445312 255.15625 122.324219 L 255.15625 203.609375 C 255.15625 204.488281 255.113281 205.367188 255.027344 206.242188 C 254.941406 207.117188 254.8125 207.984375 254.640625 208.847656 C 254.46875 209.710938 254.257812 210.5625 254 211.40625 C 253.746094 212.246094 253.449219 213.074219 253.113281 213.886719 C 252.777344 214.699219 252.402344 215.492188 251.984375 216.269531 C 251.570312 217.042969 251.121094 217.796875 250.632812 218.53125 C 250.140625 219.261719 249.617188 219.964844 249.0625 220.648438 C 248.503906 221.328125 247.914062 221.976562 247.289062 222.597656 C 246.667969 223.222656 246.019531 223.8125 245.339844 224.371094 C 244.65625 224.925781 243.953125 225.449219 243.222656 225.941406 C 242.488281 226.429688 241.734375 226.878906 240.960938 227.292969 C 240.183594 227.710938 239.390625 228.085938 238.578125 228.421875 C 237.765625 228.757812 236.9375 229.054688 236.097656 229.308594 C 235.253906 229.566406 234.402344 229.777344 233.539062 229.949219 C 232.675781 230.121094 231.808594 230.25 230.933594 230.335938 C 230.058594 230.421875 229.179688 230.464844 228.300781 230.464844 L 147.015625 230.464844 C 146.136719 230.464844 145.257812 230.421875 144.382812 230.335938 C 143.507812 230.25 142.636719 230.121094 141.777344 229.949219 C 140.914062 229.777344 140.0625 229.566406 139.21875 229.308594 C 138.378906 229.054688 137.550781 228.757812 136.738281 228.421875 C 135.925781 228.085938 135.128906 227.710938 134.355469 227.292969 C 133.578125 226.878906 132.824219 226.429688 132.09375 225.941406 C 131.363281 225.449219 130.65625 224.925781 129.976562 224.371094 C 129.296875 223.8125 128.644531 223.222656 128.023438 222.597656 C 127.402344 221.976562 126.8125 221.328125 126.253906 220.648438 C 125.695312 219.964844 125.171875 219.261719 124.683594 218.53125 C 124.195312 217.796875 123.742188 217.042969 123.328125 216.269531 C 122.914062 215.492188 122.539062 214.699219 122.203125 213.886719 C 121.863281 213.074219 121.570312 212.246094 121.3125 211.40625 C 121.058594 210.5625 120.84375 209.710938 120.671875 208.847656 C 120.5 207.984375 120.371094 207.117188 120.285156 206.242188 C 120.199219 205.367188 120.15625 204.488281 120.15625 203.609375 L 120.15625 122.324219 C 120.15625 121.445312 120.199219 120.566406 120.285156 119.691406 C 120.371094 118.816406 120.5 117.945312 120.671875 117.085938 C 120.84375 116.222656 121.058594 115.367188 121.3125 114.527344 C 121.570312 113.6875 121.863281 112.859375 122.203125 112.046875 C 122.539062 111.234375 122.914062 110.4375 123.328125 109.664062 C 123.742188 108.886719 124.195312 108.132812 124.683594 107.402344 C 125.171875 106.671875 125.695312 105.964844 126.253906 105.285156 C 126.8125 104.605469 127.402344 103.953125 128.023438 103.332031 C 128.644531 102.710938 129.296875 102.121094 129.976562 101.5625 C 130.65625 101.003906 131.363281 100.480469 132.09375 99.992188 C 132.824219 99.503906 133.578125 99.050781 134.355469 98.636719 C 135.128906 98.222656 135.925781 97.847656 136.738281 97.511719 C 137.550781 97.171875 138.378906 96.878906 139.21875 96.621094 C 140.0625 96.367188 140.914062 96.152344 141.777344 95.980469 C 142.636719 95.808594 143.507812 95.679688 144.382812 95.59375 C 145.257812 95.507812 146.136719 95.464844 147.015625 95.464844 Z M 147.015625 95.464844 " fill-opacity="1" fill-rule="nonzero"/></g><g clip-path="url(#id2)"><path fill="#1a257d" d="M 238.101562 138.300781 L 137.3125 184.5625 L 182.746094 229.824219 L 228.246094 229.824219 C 229.109375 229.824219 229.972656 229.78125 230.832031 229.695312 C 231.691406 229.613281 232.546875 229.488281 233.390625 229.316406 C 234.238281 229.148438 235.078125 228.941406 235.902344 228.691406 C 236.730469 228.441406 237.542969 228.152344 238.339844 227.820312 C 239.140625 227.492188 239.917969 227.125 240.683594 226.71875 C 241.445312 226.3125 242.183594 225.867188 242.902344 225.390625 C 243.621094 224.910156 244.3125 224.398438 244.980469 223.851562 C 245.648438 223.304688 246.289062 222.726562 246.898438 222.117188 C 247.507812 221.511719 248.089844 220.871094 248.636719 220.207031 C 249.183594 219.539062 249.695312 218.847656 250.175781 218.132812 C 250.65625 217.417969 251.097656 216.679688 251.503906 215.917969 C 251.914062 215.160156 252.28125 214.382812 252.609375 213.585938 C 252.941406 212.789062 253.230469 211.980469 253.480469 211.15625 C 253.730469 210.332031 253.9375 209.5 254.105469 208.652344 C 254.273438 207.808594 254.398438 206.957031 254.484375 206.101562 C 254.566406 205.246094 254.609375 204.386719 254.605469 203.523438 L 254.605469 154.78125 Z M 238.101562 138.300781 " fill-opacity="1" fill-rule="nonzero"/></g><g clip-path="url(#id3)"><path fill="#fe978a" d="M 214.929688 168.167969 L 214.929688 183.976562 L 202.019531 183.976562 C 187.203125 183.976562 182.679688 193.492188 182.679688 193.492188 L 182.679688 177.5625 C 182.679688 177.5625 187.117188 168.167969 201.683594 168.167969 Z M 214.929688 168.167969 " fill-opacity="1" fill-rule="nonzero"/></g><g clip-path="url(#id4)"><path fill="#ff6f50" d="M 226.136719 152.835938 L 226.136719 168.757812 L 201.699219 168.757812 C 187.160156 168.757812 182.722656 178.335938 182.722656 178.335938 L 182.722656 162.296875 C 182.722656 162.296875 187.796875 152.835938 201.933594 152.835938 Z M 226.136719 152.835938 " fill-opacity="1" fill-rule="nonzero"/></g><g clip-path="url(#id5)"><path fill="#88c9ef" d="M 237.96875 137.59375 L 237.96875 153.511719 L 201.828125 153.511719 C 188.53125 153.511719 182.890625 163.09375 182.890625 163.09375 L 182.890625 147.328125 C 182.890625 147.328125 186.898438 137.59375 204.554688 137.59375 Z M 237.96875 137.59375 " fill-opacity="1" fill-rule="nonzero"/></g><g clip-path="url(#id6)"><path fill="#fefefe" d="M 137.246094 140.898438 L 137.246094 181.445312 C 137.246094 181.882812 137.328125 182.304688 137.496094 182.710938 C 137.664062 183.113281 137.90625 183.472656 138.214844 183.78125 C 138.527344 184.089844 138.886719 184.332031 139.292969 184.496094 C 139.699219 184.664062 140.121094 184.75 140.5625 184.75 L 163.753906 184.75 C 178.832031 184.75 183.425781 194.59375 183.425781 194.59375 L 183.425781 147.246094 C 183.425781 147.246094 179.269531 137.59375 160.933594 137.59375 L 140.5625 137.59375 C 140.121094 137.59375 139.699219 137.675781 139.292969 137.84375 C 138.886719 138.011719 138.527344 138.25 138.214844 138.558594 C 137.90625 138.871094 137.664062 139.226562 137.496094 139.632812 C 137.328125 140.039062 137.246094 140.457031 137.246094 140.898438 Z M 137.246094 140.898438 " fill-opacity="1" fill-rule="nonzero"/></g></svg>