<svg xmlns="http://www.w3.org/2000/svg" xmlns:xlink="http://www.w3.org/1999/xlink" width="500" zoomAndPan="magnify" viewBox="0 0 375 374.999991" height="500" preserveAspectRatio="xMidYMid meet" version="1.0"><defs><g/><clipPath id="id1"><path d="M 120.15625 95.464844 L 255.15625 95.464844 L 255.15625 230.464844 L 120.15625 230.464844 Z M 120.15625 95.464844 " clip-rule="nonzero"/></clipPath><clipPath id="id2"><path d="M 137.085938 138.300781 L 254.835938 138.300781 L 254.835938 229.800781 L 137.085938 229.800781 Z M 137.085938 138.300781 " clip-rule="nonzero"/></clipPath><clipPath id="id3"><path d="M 182.679688 168.078125 L 214.929688 168.078125 L 214.929688 193.578125 L 182.679688 193.578125 Z M 182.679688 168.078125 " clip-rule="nonzero"/></clipPath><clipPath id="id4"><path d="M 182.679688 152.835938 L 226.179688 152.835938 L 226.179688 178.335938 L 182.679688 178.335938 Z M 182.679688 152.835938 " clip-rule="nonzero"/></clipPath><clipPath id="id5"><path d="M 182.679688 137.59375 L 238 137.59375 L 238 163.09375 L 182.679688 163.09375 Z M 182.679688 137.59375 " clip-rule="nonzero"/></clipPath><clipPath id="id6"><path d="M 137.085938 137.59375 L 183.585938 137.59375 L 183.585938 194.59375 L 137.085938 194.59375 Z M 137.085938 137.59375 " clip-rule="nonzero"/></clipPath></defs><g clip-path="url(#id1)"><path fill="#3e1bed" d="M 147.015625 95.464844 L 228.300781 95.464844 C 229.179688 95.464844 230.058594 95.507812 230.933594 95.59375 C 231.808594 95.679688 232.675781 95.808594 233.539062 95.980469 C 234.402344 96.152344 235.253906 96.367188 236.097656 96.621094 C 236.9375 96.878906 237.765625 97.171875 238.578125 97.511719 C 239.390625 97.847656 240.183594 98.222656 240.960938 98.636719 C 241.734375 99.050781 242.488281 99.503906 243.222656 99.992188 C 243.953125 100.480469 244.65625 101.003906 245.339844 101.5625 C 246.019531 102.121094 246.667969 102.710938 247.289062 103.332031 C 247.914062 103.953125 248.503906 104.605469 249.0625 105.285156 C 249.617188 105.964844 250.140625 106.671875 250.632812 107.402344 C 251.121094 108.132812 251.570312 108.886719 251.984375 109.664062 C 252.402344 110.4375 252.777344 111.234375 253.113281 112.046875 C 253.449219 112.859375 253.746094 113.6875 254 114.527344 C 254.257812 115.367188 254.46875 116.222656 254.640625 117.085938 C 254.8125 117.945312 254.941406 118.816406 255.027344 119.691406 C 255.113281 120.566406 255.15625 121.445312 255.15625 122.324219 L 255.15625 203.609375 C 255.15625 204.488281 255.113281 205.367188 255.027344 206.242188 C 254.941406 207.117188 254.8125 207.984375 254.640625 208.847656 C 254.46875 209.710938 254.257812 210.5625 254 211.40625 C 253.746094 212.246094 253.449219 213.074219 253.113281 213.886719 C 252.777344 214.699219 252.402344 215.492188 251.984375 216.269531 C 251.570312 217.042969 251.121094 217.796875 250.632812 218.53125 C 250.140625 219.261719 249.617188 219.964844 249.0625 220.648438 C 248.503906 221.328125 247.914062 221.976562 247.289062 222.597656 C 246.667969 223.222656 246.019531 223.8125 245.339844 224.371094 C 244.65625 224.925781 243.953125 225.449219 243.222656 225.941406 C 242.488281 226.429688 241.734375 226.878906 240.960938 227.292969 C 240.183594 227.710938 239.390625 228.085938 238.578125 228.421875 C 237.765625 228.757812 236.9375 229.054688 236.097656 229.308594 C 235.253906 229.566406 234.402344 229.777344 233.539062 229.949219 C 232.675781 230.121094 231.808594 230.25 230.933594 230.335938 C 230.058594 230.421875 229.179688 230.464844 228.300781 230.464844 L 147.015625 230.464844 C 146.136719 230.464844 145.257812 230.421875 144.382812 230.335938 C 143.507812 230.25 142.636719 230.121094 141.777344 229.949219 C 140.914062 229.777344 140.0625 229.566406 139.21875 229.308594 C 138.378906 229.054688 137.550781 228.757812 136.738281 228.421875 C 135.925781 228.085938 135.128906 227.710938 134.355469 227.292969 C 133.578125 226.878906 132.824219 226.429688 132.09375 225.941406 C 131.363281 225.449219 130.65625 224.925781 129.976562 224.371094 C 129.296875 223.8125 128.644531 223.222656 128.023438 222.597656 C 127.402344 221.976562 126.8125 221.328125 126.253906 220.648438 C 125.695312 219.964844 125.171875 219.261719 124.683594 218.53125 C 124.195312 217.796875 123.742188 217.042969 123.328125 216.269531 C 122.914062 215.492188 122.539062 214.699219 122.203125 213.886719 C 121.863281 213.074219 121.570312 212.246094 121.3125 211.40625 C 121.058594 210.5625 120.84375 209.710938 120.671875 208.847656 C 120.5 207.984375 120.371094 207.117188 120.285156 206.242188 C 120.199219 205.367188 120.15625 204.488281 120.15625 203.609375 L 120.15625 122.324219 C 120.15625 121.445312 120.199219 120.566406 120.285156 119.691406 C 120.371094 118.816406 120.5 117.945312 120.671875 117.085938 C 120.84375 116.222656 121.058594 115.367188 121.3125 114.527344 C 121.570312 113.6875 121.863281 112.859375 122.203125 112.046875 C 122.539062 111.234375 122.914062 110.4375 123.328125 109.664062 C 123.742188 108.886719 124.195312 108.132812 124.683594 107.402344 C 125.171875 106.671875 125.695312 105.964844 126.253906 105.285156 C 126.8125 104.605469 127.402344 103.953125 128.023438 103.332031 C 128.644531 102.710938 129.296875 102.121094 129.976562 101.5625 C 130.65625 101.003906 131.363281 100.480469 132.09375 99.992188 C 132.824219 99.503906 133.578125 99.050781 134.355469 98.636719 C 135.128906 98.222656 135.925781 97.847656 136.738281 97.511719 C 137.550781 97.171875 138.378906 96.878906 139.21875 96.621094 C 140.0625 96.367188 140.914062 96.152344 141.777344 95.980469 C 142.636719 95.808594 143.507812 95.679688 144.382812 95.59375 C 145.257812 95.507812 146.136719 95.464844 147.015625 95.464844 Z M 147.015625 95.464844 " fill-opacity="1" fill-rule="nonzero"/></g><g clip-path="url(#id2)"><path fill="#1a257d" d="M 238.101562 138.300781 L 137.3125 184.5625 L 182.746094 229.824219 L 228.246094 229.824219 C 229.109375 229.824219 229.972656 229.78125 230.832031 229.695312 C 231.691406 229.613281 232.546875 229.488281 233.390625 229.316406 C 234.238281 229.148438 235.078125 228.941406 235.902344 228.691406 C 236.730469 228.441406 237.542969 228.152344 238.339844 227.820312 C 239.140625 227.492188 239.917969 227.125 240.683594 226.71875 C 241.445312 226.3125 242.183594 225.867188 242.902344 225.390625 C 243.621094 224.910156 244.3125 224.398438 244.980469 223.851562 C 245.648438 223.304688 246.289062 222.726562 246.898438 222.117188 C 247.507812 221.511719 248.089844 220.871094 248.636719 220.207031 C 249.183594 219.539062 249.695312 218.847656 250.175781 218.132812 C 250.65625 217.417969 251.097656 216.679688 251.503906 215.917969 C 251.914062 215.160156 252.28125 214.382812 252.609375 213.585938 C 252.941406 212.789062 253.230469 211.980469 253.480469 211.15625 C 253.730469 210.332031 253.9375 209.5 254.105469 208.652344 C 254.273438 207.808594 254.398438 206.957031 254.484375 206.101562 C 254.566406 205.246094 254.609375 204.386719 254.605469 203.523438 L 254.605469 154.78125 Z M 238.101562 138.300781 " fill-opacity="1" fill-rule="nonzero"/></g><g clip-path="url(#id3)"><path fill="#fe978a" d="M 214.929688 168.167969 L 214.929688 183.976562 L 202.019531 183.976562 C 187.203125 183.976562 182.679688 193.492188 182.679688 193.492188 L 182.679688 177.5625 C 182.679688 177.5625 187.117188 168.167969 201.683594 168.167969 Z M 214.929688 168.167969 " fill-opacity="1" fill-rule="nonzero"/></g><g clip-path="url(#id4)"><path fill="#ff6f50" d="M 226.136719 152.835938 L 226.136719 168.757812 L 201.699219 168.757812 C 187.160156 168.757812 182.722656 178.335938 182.722656 178.335938 L 182.722656 162.296875 C 182.722656 162.296875 187.796875 152.835938 201.933594 152.835938 Z M 226.136719 152.835938 " fill-opacity="1" fill-rule="nonzero"/></g><g clip-path="url(#id5)"><path fill="#88c9ef" d="M 237.96875 137.59375 L 237.96875 153.511719 L 201.828125 153.511719 C 188.53125 153.511719 182.890625 163.09375 182.890625 163.09375 L 182.890625 147.328125 C 182.890625 147.328125 186.898438 137.59375 204.554688 137.59375 Z M 237.96875 137.59375 " fill-opacity="1" fill-rule="nonzero"/></g><g clip-path="url(#id6)"><path fill="#fefefe" d="M 137.246094 140.898438 L 137.246094 181.445312 C 137.246094 181.882812 137.328125 182.304688 137.496094 182.710938 C 137.664062 183.113281 137.90625 183.472656 138.214844 183.78125 C 138.527344 184.089844 138.886719 184.332031 139.292969 184.496094 C 139.699219 184.664062 140.121094 184.75 140.5625 184.75 L 163.753906 184.75 C 178.832031 184.75 183.425781 194.59375 183.425781 194.59375 L 183.425781 147.246094 C 183.425781 147.246094 179.269531 137.59375 160.933594 137.59375 L 140.5625 137.59375 C 140.121094 137.59375 139.699219 137.675781 139.292969 137.84375 C 138.886719 138.011719 138.527344 138.25 138.214844 138.558594 C 137.90625 138.871094 137.664062 139.226562 137.496094 139.632812 C 137.328125 140.039062 137.246094 140.457031 137.246094 140.898438 Z M 137.246094 140.898438 " fill-opacity="1" fill-rule="nonzero"/></g><g fill="#3e1bed" fill-opacity="1"><g transform="translate(99.187498, 259.987819)"><g><path d="M 1.765625 -15.40625 L 9.125 -15.40625 C 9.8125 -15.40625 10.4375 -15.300781 11 -15.09375 C 11.5625 -14.882812 12.035156 -14.597656 12.421875 -14.234375 C 12.804688 -13.878906 13.101562 -13.457031 13.3125 -12.96875 C 13.53125 -12.488281 13.640625 -11.976562 13.640625 -11.4375 C 13.640625 -10.78125 13.523438 -10.238281 13.296875 -9.8125 C 13.066406 -9.382812 12.816406 -9.046875 12.546875 -8.796875 C 12.222656 -8.503906 11.851562 -8.285156 11.4375 -8.140625 L 11.4375 -8.03125 C 11.96875 -7.914062 12.445312 -7.707031 12.875 -7.40625 C 13.21875 -7.164062 13.539062 -6.800781 13.84375 -6.3125 C 14.144531 -5.832031 14.296875 -5.195312 14.296875 -4.40625 C 14.296875 -3.769531 14.179688 -3.179688 13.953125 -2.640625 C 13.734375 -2.109375 13.398438 -1.644531 12.953125 -1.25 C 12.503906 -0.851562 11.945312 -0.546875 11.28125 -0.328125 C 10.625 -0.109375 9.867188 0 9.015625 0 L 1.765625 0 Z M 9.015625 -1.875 C 10.117188 -1.875 10.941406 -2.113281 11.484375 -2.59375 C 12.035156 -3.082031 12.3125 -3.6875 12.3125 -4.40625 C 12.3125 -5.175781 12.035156 -5.804688 11.484375 -6.296875 C 10.941406 -6.796875 10.117188 -7.046875 9.015625 -7.046875 L 3.734375 -7.046875 L 3.734375 -1.875 Z M 9.015625 -8.90625 C 9.859375 -8.90625 10.507812 -9.125 10.96875 -9.5625 C 11.425781 -10.007812 11.65625 -10.5625 11.65625 -11.21875 C 11.65625 -11.875 11.425781 -12.421875 10.96875 -12.859375 C 10.507812 -13.304688 9.859375 -13.53125 9.015625 -13.53125 L 3.734375 -13.53125 L 3.734375 -8.90625 Z M 9.015625 -8.90625 "/></g></g></g><g fill="#3e1bed" fill-opacity="1"><g transform="translate(114.584755, 259.987819)"><g><path d="M 9.015625 0.4375 C 7.859375 0.4375 6.785156 0.238281 5.796875 -0.15625 C 4.816406 -0.5625 3.972656 -1.128906 3.265625 -1.859375 C 2.554688 -2.585938 2 -3.445312 1.59375 -4.4375 C 1.1875 -5.425781 0.984375 -6.515625 0.984375 -7.703125 C 0.984375 -8.890625 1.1875 -9.976562 1.59375 -10.96875 C 2 -11.957031 2.554688 -12.8125 3.265625 -13.53125 C 3.972656 -14.257812 4.816406 -14.828125 5.796875 -15.234375 C 6.785156 -15.640625 7.859375 -15.84375 9.015625 -15.84375 C 10.179688 -15.84375 11.25 -15.640625 12.21875 -15.234375 C 13.195312 -14.828125 14.046875 -14.257812 14.765625 -13.53125 C 15.484375 -12.8125 16.039062 -11.957031 16.4375 -10.96875 C 16.84375 -9.976562 17.046875 -8.890625 17.046875 -7.703125 C 17.046875 -6.515625 16.84375 -5.425781 16.4375 -4.4375 C 16.039062 -3.445312 15.484375 -2.585938 14.765625 -1.859375 C 14.046875 -1.128906 13.195312 -0.5625 12.21875 -0.15625 C 11.25 0.238281 10.179688 0.4375 9.015625 0.4375 Z M 9.015625 -1.4375 C 9.898438 -1.4375 10.710938 -1.582031 11.453125 -1.875 C 12.191406 -2.175781 12.828125 -2.601562 13.359375 -3.15625 C 13.898438 -3.707031 14.316406 -4.367188 14.609375 -5.140625 C 14.910156 -5.910156 15.0625 -6.765625 15.0625 -7.703125 C 15.0625 -8.640625 14.910156 -9.492188 14.609375 -10.265625 C 14.316406 -11.035156 13.898438 -11.691406 13.359375 -12.234375 C 12.828125 -12.785156 12.191406 -13.210938 11.453125 -13.515625 C 10.710938 -13.816406 9.898438 -13.96875 9.015625 -13.96875 C 8.140625 -13.96875 7.332031 -13.816406 6.59375 -13.515625 C 5.851562 -13.210938 5.210938 -12.785156 4.671875 -12.234375 C 4.140625 -11.691406 3.722656 -11.035156 3.421875 -10.265625 C 3.117188 -9.492188 2.96875 -8.640625 2.96875 -7.703125 C 2.96875 -6.765625 3.117188 -5.910156 3.421875 -5.140625 C 3.722656 -4.367188 4.140625 -3.707031 4.671875 -3.15625 C 5.210938 -2.601562 5.851562 -2.175781 6.59375 -1.875 C 7.332031 -1.582031 8.140625 -1.4375 9.015625 -1.4375 Z M 9.015625 -1.4375 "/></g></g></g><g fill="#3e1bed" fill-opacity="1"><g transform="translate(132.621536, 259.987819)"><g><path d="M 9.015625 0.4375 C 7.859375 0.4375 6.785156 0.238281 5.796875 -0.15625 C 4.816406 -0.5625 3.972656 -1.128906 3.265625 -1.859375 C 2.554688 -2.585938 2 -3.445312 1.59375 -4.4375 C 1.1875 -5.425781 0.984375 -6.515625 0.984375 -7.703125 C 0.984375 -8.890625 1.1875 -9.976562 1.59375 -10.96875 C 2 -11.957031 2.554688 -12.8125 3.265625 -13.53125 C 3.972656 -14.257812 4.816406 -14.828125 5.796875 -15.234375 C 6.785156 -15.640625 7.859375 -15.84375 9.015625 -15.84375 C 10.179688 -15.84375 11.25 -15.640625 12.21875 -15.234375 C 13.195312 -14.828125 14.046875 -14.257812 14.765625 -13.53125 C 15.484375 -12.8125 16.039062 -11.957031 16.4375 -10.96875 C 16.84375 -9.976562 17.046875 -8.890625 17.046875 -7.703125 C 17.046875 -6.515625 16.84375 -5.425781 16.4375 -4.4375 C 16.039062 -3.445312 15.484375 -2.585938 14.765625 -1.859375 C 14.046875 -1.128906 13.195312 -0.5625 12.21875 -0.15625 C 11.25 0.238281 10.179688 0.4375 9.015625 0.4375 Z M 9.015625 -1.4375 C 9.898438 -1.4375 10.710938 -1.582031 11.453125 -1.875 C 12.191406 -2.175781 12.828125 -2.601562 13.359375 -3.15625 C 13.898438 -3.707031 14.316406 -4.367188 14.609375 -5.140625 C 14.910156 -5.910156 15.0625 -6.765625 15.0625 -7.703125 C 15.0625 -8.640625 14.910156 -9.492188 14.609375 -10.265625 C 14.316406 -11.035156 13.898438 -11.691406 13.359375 -12.234375 C 12.828125 -12.785156 12.191406 -13.210938 11.453125 -13.515625 C 10.710938 -13.816406 9.898438 -13.96875 9.015625 -13.96875 C 8.140625 -13.96875 7.332031 -13.816406 6.59375 -13.515625 C 5.851562 -13.210938 5.210938 -12.785156 4.671875 -12.234375 C 4.140625 -11.691406 3.722656 -11.035156 3.421875 -10.265625 C 3.117188 -9.492188 2.96875 -8.640625 2.96875 -7.703125 C 2.96875 -6.765625 3.117188 -5.910156 3.421875 -5.140625 C 3.722656 -4.367188 4.140625 -3.707031 4.671875 -3.15625 C 5.210938 -2.601562 5.851562 -2.175781 6.59375 -1.875 C 7.332031 -1.582031 8.140625 -1.4375 9.015625 -1.4375 Z M 9.015625 -1.4375 "/></g></g></g><g fill="#3e1bed" fill-opacity="1"><g transform="translate(150.658316, 259.987819)"><g><path d="M 1.765625 -15.40625 L 3.734375 -15.40625 L 3.734375 -8.6875 L 6.703125 -8.6875 L 11.546875 -15.40625 L 13.859375 -15.40625 L 8.46875 -7.921875 L 14.078125 0 L 11.65625 0 L 6.8125 -6.8125 L 3.734375 -6.8125 L 3.734375 0 L 1.765625 0 Z M 1.765625 -15.40625 "/></g></g></g><g fill="#3e1bed" fill-opacity="1"><g transform="translate(164.955762, 259.987819)"><g><path d="M 7.265625 0.4375 C 6.554688 0.4375 5.921875 0.363281 5.359375 0.21875 C 4.804688 0.0820312 4.316406 -0.09375 3.890625 -0.3125 C 3.460938 -0.539062 3.085938 -0.796875 2.765625 -1.078125 C 2.441406 -1.367188 2.171875 -1.671875 1.953125 -1.984375 C 1.429688 -2.679688 1.070312 -3.488281 0.875 -4.40625 L 2.859375 -4.40625 C 3.003906 -3.84375 3.269531 -3.34375 3.65625 -2.90625 C 3.976562 -2.519531 4.425781 -2.175781 5 -1.875 C 5.570312 -1.582031 6.328125 -1.4375 7.265625 -1.4375 C 7.921875 -1.4375 8.488281 -1.503906 8.96875 -1.640625 C 9.457031 -1.773438 9.859375 -1.960938 10.171875 -2.203125 C 10.484375 -2.453125 10.71875 -2.738281 10.875 -3.0625 C 11.03125 -3.382812 11.109375 -3.71875 11.109375 -4.0625 C 11.109375 -4.539062 10.972656 -4.929688 10.703125 -5.234375 C 10.429688 -5.546875 10.066406 -5.8125 9.609375 -6.03125 C 9.160156 -6.25 8.648438 -6.4375 8.078125 -6.59375 C 7.503906 -6.757812 6.921875 -6.925781 6.328125 -7.09375 C 5.734375 -7.257812 5.148438 -7.453125 4.578125 -7.671875 C 4.003906 -7.898438 3.488281 -8.171875 3.03125 -8.484375 C 2.582031 -8.804688 2.222656 -9.207031 1.953125 -9.6875 C 1.679688 -10.164062 1.546875 -10.75 1.546875 -11.4375 C 1.546875 -12.007812 1.671875 -12.5625 1.921875 -13.09375 C 2.179688 -13.632812 2.546875 -14.101562 3.015625 -14.5 C 3.484375 -14.90625 4.054688 -15.226562 4.734375 -15.46875 C 5.421875 -15.71875 6.191406 -15.84375 7.046875 -15.84375 C 7.691406 -15.84375 8.269531 -15.78125 8.78125 -15.65625 C 9.300781 -15.53125 9.757812 -15.367188 10.15625 -15.171875 C 10.5625 -14.972656 10.910156 -14.738281 11.203125 -14.46875 C 11.503906 -14.207031 11.757812 -13.945312 11.96875 -13.6875 C 12.445312 -13.050781 12.785156 -12.335938 12.984375 -11.546875 L 11 -11.546875 C 10.863281 -11.984375 10.628906 -12.390625 10.296875 -12.765625 C 10.003906 -13.054688 9.597656 -13.328125 9.078125 -13.578125 C 8.566406 -13.835938 7.890625 -13.96875 7.046875 -13.96875 C 6.472656 -13.96875 5.960938 -13.894531 5.515625 -13.75 C 5.078125 -13.613281 4.707031 -13.425781 4.40625 -13.1875 C 4.101562 -12.957031 3.878906 -12.6875 3.734375 -12.375 C 3.585938 -12.070312 3.515625 -11.757812 3.515625 -11.4375 C 3.515625 -10.832031 3.75 -10.359375 4.21875 -10.015625 C 4.6875 -9.671875 5.273438 -9.378906 5.984375 -9.140625 C 6.703125 -8.898438 7.472656 -8.671875 8.296875 -8.453125 C 9.128906 -8.242188 9.898438 -7.96875 10.609375 -7.625 C 11.328125 -7.28125 11.921875 -6.828125 12.390625 -6.265625 C 12.859375 -5.710938 13.09375 -4.976562 13.09375 -4.0625 C 13.09375 -3.46875 12.960938 -2.894531 12.703125 -2.34375 C 12.441406 -1.789062 12.0625 -1.304688 11.5625 -0.890625 C 11.070312 -0.484375 10.46875 -0.160156 9.75 0.078125 C 9.03125 0.316406 8.203125 0.4375 7.265625 0.4375 Z M 7.265625 0.4375 "/></g></g></g><g fill="#3e1bed" fill-opacity="1"><g transform="translate(179.033253, 259.987819)"><g><path d="M 5.5 -13.53125 L 0.21875 -13.53125 L 0.21875 -15.40625 L 12.765625 -15.40625 L 12.765625 -13.53125 L 7.484375 -13.53125 L 7.484375 0 L 5.5 0 Z M 5.5 -13.53125 "/></g></g></g><g fill="#3e1bed" fill-opacity="1"><g transform="translate(192.010944, 259.987819)"><g><path d="M 4.40625 -15.40625 L 10.453125 -15.40625 L 14.40625 0 L 12.4375 0 L 11.21875 -4.515625 L 3.625 -4.515625 L 2.421875 0 L 0.4375 0 Z M 10.78125 -6.375 L 8.90625 -13.53125 L 5.9375 -13.53125 L 4.0625 -6.375 Z M 10.78125 -6.375 "/></g></g></g><g fill="#3e1bed" fill-opacity="1"><g transform="translate(206.858302, 259.987819)"><g><path d="M 9.015625 0.4375 C 7.859375 0.4375 6.785156 0.238281 5.796875 -0.15625 C 4.816406 -0.5625 3.972656 -1.128906 3.265625 -1.859375 C 2.554688 -2.585938 2 -3.445312 1.59375 -4.4375 C 1.1875 -5.425781 0.984375 -6.515625 0.984375 -7.703125 C 0.984375 -8.890625 1.1875 -9.976562 1.59375 -10.96875 C 2 -11.957031 2.554688 -12.8125 3.265625 -13.53125 C 3.972656 -14.257812 4.816406 -14.828125 5.796875 -15.234375 C 6.785156 -15.640625 7.859375 -15.84375 9.015625 -15.84375 C 9.773438 -15.84375 10.472656 -15.757812 11.109375 -15.59375 C 11.742188 -15.4375 12.304688 -15.226562 12.796875 -14.96875 C 13.296875 -14.71875 13.738281 -14.425781 14.125 -14.09375 C 14.507812 -13.757812 14.835938 -13.425781 15.109375 -13.09375 C 15.773438 -12.28125 16.273438 -11.363281 16.609375 -10.34375 L 14.625 -10.34375 C 14.332031 -11.019531 13.9375 -11.617188 13.4375 -12.140625 C 13.21875 -12.359375 12.960938 -12.578125 12.671875 -12.796875 C 12.390625 -13.023438 12.066406 -13.222656 11.703125 -13.390625 C 11.335938 -13.566406 10.929688 -13.707031 10.484375 -13.8125 C 10.035156 -13.914062 9.546875 -13.96875 9.015625 -13.96875 C 8.140625 -13.96875 7.332031 -13.816406 6.59375 -13.515625 C 5.851562 -13.210938 5.210938 -12.785156 4.671875 -12.234375 C 4.140625 -11.691406 3.722656 -11.035156 3.421875 -10.265625 C 3.117188 -9.492188 2.96875 -8.640625 2.96875 -7.703125 C 2.96875 -6.765625 3.117188 -5.910156 3.421875 -5.140625 C 3.722656 -4.367188 4.140625 -3.707031 4.671875 -3.15625 C 5.210938 -2.601562 5.851562 -2.175781 6.59375 -1.875 C 7.332031 -1.582031 8.140625 -1.4375 9.015625 -1.4375 C 9.804688 -1.4375 10.535156 -1.5625 11.203125 -1.8125 C 11.867188 -2.070312 12.457031 -2.414062 12.96875 -2.84375 C 13.476562 -3.28125 13.890625 -3.785156 14.203125 -4.359375 C 14.515625 -4.929688 14.726562 -5.53125 14.84375 -6.15625 L 11.875 -6.15625 L 11.875 -8.03125 L 18.703125 -8.03125 L 18.703125 -6.15625 L 16.828125 -6.15625 C 16.609375 -5.1875 16.273438 -4.296875 15.828125 -3.484375 C 15.378906 -2.679688 14.820312 -1.988281 14.15625 -1.40625 C 13.5 -0.832031 12.738281 -0.378906 11.875 -0.046875 C 11.007812 0.273438 10.054688 0.4375 9.015625 0.4375 Z M 9.015625 0.4375 "/></g></g></g><g fill="#3e1bed" fill-opacity="1"><g transform="translate(225.774926, 259.987819)"><g><path d="M 1.765625 -15.40625 L 8.359375 -15.40625 C 9.242188 -15.40625 10.03125 -15.28125 10.71875 -15.03125 C 11.414062 -14.78125 12.003906 -14.4375 12.484375 -14 C 12.960938 -13.570312 13.328125 -13.0625 13.578125 -12.46875 C 13.835938 -11.882812 13.96875 -11.25 13.96875 -10.5625 C 13.96875 -9.414062 13.613281 -8.425781 12.90625 -7.59375 C 12.207031 -6.769531 11.207031 -6.21875 9.90625 -5.9375 L 13.859375 0 L 11.546875 0 L 7.8125 -5.71875 L 3.734375 -5.71875 L 3.734375 0 L 1.765625 0 Z M 8.359375 -7.59375 C 9.578125 -7.59375 10.484375 -7.863281 11.078125 -8.40625 C 11.679688 -8.957031 11.984375 -9.675781 11.984375 -10.5625 C 11.984375 -11.4375 11.679688 -12.148438 11.078125 -12.703125 C 10.484375 -13.253906 9.578125 -13.53125 8.359375 -13.53125 L 3.734375 -13.53125 L 3.734375 -7.59375 Z M 8.359375 -7.59375 "/></g></g></g><g fill="#3e1bed" fill-opacity="1"><g transform="translate(240.842239, 259.987819)"><g><path d="M 4.40625 -15.40625 L 10.453125 -15.40625 L 14.40625 0 L 12.4375 0 L 11.21875 -4.515625 L 3.625 -4.515625 L 2.421875 0 L 0.4375 0 Z M 10.78125 -6.375 L 8.90625 -13.53125 L 5.9375 -13.53125 L 4.0625 -6.375 Z M 10.78125 -6.375 "/></g></g></g><g fill="#3e1bed" fill-opacity="1"><g transform="translate(255.689597, 259.987819)"><g><path d="M 1.765625 -15.40625 L 4.953125 -15.40625 L 9.5625 -5.5 L 10.5625 -5.5 L 15.1875 -15.40625 L 18.375 -15.40625 L 18.375 0 L 16.390625 0 L 16.390625 -13.203125 L 16.40625 -13.421875 L 16.375 -13.421875 L 11.875 -3.734375 L 8.25 -3.734375 L 3.765625 -13.421875 L 3.71875 -13.421875 L 3.734375 -13.203125 L 3.734375 0 L 1.765625 0 Z M 1.765625 -15.40625 "/></g></g></g></svg>